<svg width="18" height="20" viewBox="0 0 18 20" fill="none" xmlns="http://www.w3.org/2000/svg">
<path d="M17.7623 11.9232L16.3723 10.7348C16.4381 10.3316 16.4721 9.91994 16.4721 9.50825C16.4721 9.09655 16.4381 8.68486 16.3723 8.28165L17.7623 7.09325C17.8672 7.0035 17.9422 6.88396 17.9775 6.75052C18.0127 6.61709 18.0065 6.47608 17.9597 6.34626L17.9406 6.29108C17.5579 5.22158 16.9849 4.23014 16.2492 3.36465L16.211 3.32009C16.1218 3.21515 16.0028 3.13972 15.8699 3.10373C15.7369 3.06774 15.5961 3.07289 15.4662 3.11848L13.7409 3.73178C13.1042 3.20974 12.3933 2.79804 11.6251 2.50943L11.2919 0.705611C11.2668 0.569884 11.2009 0.445018 11.1031 0.347602C11.0053 0.250186 10.8802 0.184831 10.7444 0.160222L10.6871 0.149611C9.58147 -0.0498703 8.41853 -0.0498703 7.3129 0.149611L7.2556 0.160222C7.11978 0.184831 6.99466 0.250186 6.89686 0.347602C6.79907 0.445018 6.73323 0.569884 6.70809 0.705611L6.37279 2.51792C5.61071 2.80659 4.90102 3.21807 4.27187 3.73603L2.53384 3.11848C2.40389 3.07252 2.26304 3.06719 2.12999 3.1032C1.99694 3.13921 1.878 3.21486 1.78897 3.32009L1.75077 3.36465C1.01597 4.23075 0.443056 5.22203 0.0594242 6.29108L0.0403249 6.34626C-0.0551714 6.61153 0.0233479 6.90863 0.237684 7.09325L1.64466 8.29438C1.57888 8.69335 1.54704 9.1008 1.54704 9.50613C1.54704 9.91358 1.57888 10.321 1.64466 10.7179L0.237684 11.919C0.132841 12.0088 0.0578039 12.1283 0.0225499 12.2617C-0.0127041 12.3952 -0.00650437 12.5362 0.0403249 12.666L0.0594242 12.7212C0.443532 13.7907 1.01227 14.7775 1.75077 15.6476L1.78897 15.6922C1.87821 15.7971 1.99716 15.8725 2.13013 15.9085C2.2631 15.9445 2.40385 15.9394 2.53384 15.8938L4.27187 15.2762C4.90427 15.7961 5.61094 16.2078 6.37279 16.4943L6.70809 18.3066C6.73323 18.4424 6.79907 18.5672 6.89686 18.6646C6.99466 18.7621 7.11978 18.8274 7.2556 18.852L7.3129 18.8626C8.42869 19.0632 9.57131 19.0632 10.6871 18.8626L10.7444 18.852C10.8802 18.8274 11.0053 18.7621 11.1031 18.6646C11.2009 18.5672 11.2668 18.4424 11.2919 18.3066L11.6251 16.5028C12.393 16.215 13.1079 15.8019 13.7409 15.2805L15.4662 15.8938C15.5961 15.9397 15.737 15.9451 15.87 15.909C16.0031 15.873 16.122 15.7974 16.211 15.6922L16.2492 15.6476C16.9877 14.7754 17.5565 13.7907 17.9406 12.7212L17.9597 12.666C18.0552 12.405 17.9767 12.1079 17.7623 11.9232ZM14.8656 8.53206C14.9186 8.85251 14.9462 9.18144 14.9462 9.51037C14.9462 9.8393 14.9186 10.1682 14.8656 10.4887L14.7255 11.3397L16.3108 12.6957C16.0705 13.2493 15.7671 13.7734 15.4067 14.2576L13.4374 13.5594L12.771 14.1069C12.2639 14.5229 11.6994 14.8497 11.0882 15.0789L10.2797 15.3823L9.89979 17.4408C9.30043 17.5087 8.69532 17.5087 8.09597 17.4408L7.71611 15.3781L6.91394 15.0704C6.30913 14.8412 5.74676 14.5144 5.24381 14.1006L4.57746 13.5509L2.59538 14.2555C2.23462 13.7695 1.93327 13.2453 1.69135 12.6936L3.29357 11.3248L3.15563 10.4759C3.1047 10.1597 3.07711 9.83294 3.07711 9.51037C3.07711 9.18568 3.10257 8.861 3.15563 8.5448L3.29357 7.69594L1.69135 6.32716C1.93115 5.77328 2.23462 5.25124 2.59538 4.76526L4.57746 5.46982L5.24381 4.92018C5.74676 4.50636 6.30913 4.17955 6.91394 3.95036L7.71823 3.6469L8.09809 1.58418C8.69441 1.51627 9.30347 1.51627 9.90191 1.58418L10.2818 3.64265L11.0903 3.94612C11.6994 4.17531 12.266 4.50212 12.7732 4.91806L13.4395 5.46557L15.4089 4.76739C15.7696 5.25336 16.071 5.77753 16.3129 6.32928L14.7277 7.68533L14.8656 8.53206ZM9.00212 5.56319C6.9394 5.56319 5.26716 7.23544 5.26716 9.29816C5.26716 11.3609 6.9394 13.0331 9.00212 13.0331C11.0648 13.0331 12.7371 11.3609 12.7371 9.29816C12.7371 7.23544 11.0648 5.56319 9.00212 5.56319ZM10.6829 10.9789C10.4624 11.2 10.2004 11.3753 9.91199 11.4947C9.62354 11.6142 9.31433 11.6754 9.00212 11.675C8.3676 11.675 7.77128 11.4267 7.32139 10.9789C7.10031 10.7584 6.925 10.4965 6.80554 10.208C6.68609 9.91958 6.62484 9.61036 6.62533 9.29816C6.62533 8.66364 6.87362 8.06731 7.32139 7.61742C7.77128 7.16753 8.3676 6.92136 9.00212 6.92136C9.63664 6.92136 10.233 7.16753 10.6829 7.61742C10.9039 7.83786 11.0792 8.09984 11.1987 8.38829C11.3182 8.67674 11.3794 8.98595 11.3789 9.29816C11.3789 9.93268 11.1306 10.529 10.6829 10.9789Z" fill="#CCCCCC"/>
</svg>
