<svg width="21" height="20" viewBox="0 0 21 20" fill="none" xmlns="http://www.w3.org/2000/svg">
<path d="M11.32 19.3036L9.69 15.6418C11.26 15.0873 12.73 14.3415 14.09 13.4714L11.32 19.3036ZM3.83 10.039L0 8.4806L6.1 5.83221C5.19 7.1325 4.41 8.53797 3.83 10.039ZM17.41 1.9122C17.69 1.9122 17.94 1.9122 18.15 1.96C18.32 3.28898 18.13 6.02343 14.85 9.15943C13.15 10.7944 11.12 12.0469 8.84 12.8787L6.69 10.8709C7.61 8.66226 8.92 6.72138 10.61 5.10557C13.37 2.46674 15.83 1.9122 17.41 1.9122ZM17.41 0C15.43 0 12.43 0.659708 9.19 3.75747C7 5.85133 5.69 8.15553 4.84 10.1729C4.56 10.89 4.75 11.674 5.3 12.2094L7.43 14.2363C7.81 14.5996 8.32 14.8195 8.85 14.8195C9.08 14.8195 9.32 14.7622 9.55 14.6761C11.69 13.8921 14.07 12.611 16.26 10.5171C21.92 5.10557 19.8 0.372879 19.8 0.372879C19.8 0.372879 18.89 0 17.41 0ZM12.73 7.1325C11.95 6.38674 11.95 5.1725 12.73 4.42674C13.51 3.68098 14.78 3.68098 15.56 4.42674C16.33 5.1725 16.34 6.38674 15.56 7.1325C14.78 7.87826 13.51 7.87826 12.73 7.1325ZM7.07 13.8921L5.66 12.544L7.07 13.8921ZM4.43 19.122L8.07 15.6418C7.73 15.5557 7.4 15.4123 7.1 15.2115L3.02 19.122H4.43ZM0.19 19.122H1.6L6.37 14.571L4.95 13.2229L0.19 17.7739V19.122ZM0.19 16.4162L4.28 12.5153C4.07 12.2285 3.92 11.9226 3.83 11.5879L0.19 15.0681V16.4162Z" fill="black"/>
</svg>
