<svg width="20" height="18" viewBox="0 0 20 18" fill="none" xmlns="http://www.w3.org/2000/svg">
<path d="M15.5 11.75H13.6666V13.5833H15.5V11.75ZM15.5 8.08333H13.6666V9.91667H15.5V8.08333ZM17.3333 15.4167H9.99998V13.5833H11.8333V11.75H9.99998V9.91667H11.8333V8.08333H9.99998V6.25H17.3333V15.4167ZM8.16665 4.41667H6.33331V2.58333H8.16665V4.41667ZM8.16665 8.08333H6.33331V6.25H8.16665V8.08333ZM8.16665 11.75H6.33331V9.91667H8.16665V11.75ZM8.16665 15.4167H6.33331V13.5833H8.16665V15.4167ZM4.49998 4.41667H2.66665V2.58333H4.49998V4.41667ZM4.49998 8.08333H2.66665V6.25H4.49998V8.08333ZM4.49998 11.75H2.66665V9.91667H4.49998V11.75ZM4.49998 15.4167H2.66665V13.5833H4.49998V15.4167ZM9.99998 4.41667V0.75H0.833313V17.25H19.1666V4.41667H9.99998Z" fill="red"/>
</svg>
